<?xml version="1.0" encoding="UTF-8"?>
<!DOCTYPE svg PUBLIC "-//W3C//DTD SVG 1.1//EN" "http://www.w3.org/Graphics/SVG/1.1/DTD/svg11.dtd">
<svg xmlns="http://www.w3.org/2000/svg" version="1.1" width="860px" height="179px" style="shape-rendering:geometricPrecision; text-rendering:geometricPrecision; image-rendering:optimizeQuality; fill-rule:evenodd; clip-rule:evenodd" xmlns:xlink="http://www.w3.org/1999/xlink">
<g><path style="opacity:0.927" fill="#fbfbfb" d="M 763.5,-0.5 C 767.5,-0.5 771.5,-0.5 775.5,-0.5C 775.196,28.849 775.696,58.1823 777,87.5C 791.479,72.1692 808.979,67.3359 829.5,73C 842.488,77.3188 851.654,85.8188 857,98.5C 858.085,107.936 858.918,117.269 859.5,126.5C 859.5,137.5 859.5,148.5 859.5,159.5C 858.513,164.305 858.179,169.305 858.5,174.5C 855.5,174.5 852.5,174.5 849.5,174.5C 849.667,158.163 849.5,141.83 849,125.5C 849.664,110.118 844.164,97.6185 832.5,88C 808.959,76.6769 791.126,82.5103 779,105.5C 777.378,110.032 776.378,114.699 776,119.5C 775.5,137.83 775.333,156.164 775.5,174.5C 771.5,174.5 767.5,174.5 763.5,174.5C 763.5,116.167 763.5,57.8333 763.5,-0.5 Z"/></g>
<g><path style="opacity:0.92" fill="#fbfbfb" d="M 447.5,30.5 C 451.5,30.5 455.5,30.5 459.5,30.5C 459.5,44.8333 459.5,59.1667 459.5,73.5C 469.172,73.3335 478.839,73.5002 488.5,74C 489.593,76.4433 490.593,78.9433 491.5,81.5C 490.975,82.1924 490.308,82.6924 489.5,83C 480.256,83.1808 471.089,83.6808 462,84.5C 461.178,86.7885 460.511,89.1218 460,91.5C 459.5,119.165 459.333,146.831 459.5,174.5C 455.5,174.5 451.5,174.5 447.5,174.5C 447.667,146.498 447.5,118.498 447,90.5C 446.338,88.1873 445.838,85.854 445.5,83.5C 435.5,83.5 425.5,83.5 415.5,83.5C 415.5,80.1667 415.5,76.8333 415.5,73.5C 426.167,73.5 436.833,73.5 447.5,73.5C 447.5,59.1667 447.5,44.8333 447.5,30.5 Z"/></g>
<g><path style="opacity:0.916" fill="#fbfbfb" d="M -0.5,174.5 C -0.5,163.5 -0.5,152.5 -0.5,141.5C 0.330376,131.008 0.830376,120.341 1,109.5C 7.08919,84.4191 23.0892,71.4191 49,70.5C 79.4668,71.966 95.8001,87.966 98,118.5C 98.4999,137.164 98.6666,155.83 98.5,174.5C 94.5,174.5 90.5,174.5 86.5,174.5C 86.6666,155.83 86.4999,137.164 86,118.5C 80.8313,88.8347 63.6646,77.668 34.5,85C 22.3077,91.5403 15.141,101.707 13,115.5C 12.5,135.164 12.3334,154.831 12.5,174.5C 8.16667,174.5 3.83333,174.5 -0.5,174.5 Z"/></g>
<g><path style="opacity:0.9" fill="#fbfbfb" d="M 185.5,178.5 C 179.833,178.5 174.167,178.5 168.5,178.5C 138.35,173.111 123.35,154.945 123.5,124C 124.09,96.7553 137.424,79.422 163.5,72C 204.727,66.9461 227.06,85.1128 230.5,126.5C 200.498,126.333 170.498,126.5 140.5,127C 137.736,127.263 136.069,128.763 135.5,131.5C 140.026,154.189 153.859,166.523 177,168.5C 182.831,167.001 188.664,165.501 194.5,164C 199.94,161.049 204.94,157.549 209.5,153.5C 213.107,154.637 216.44,156.304 219.5,158.5C 210.836,169.828 199.502,176.494 185.5,178.5 Z M 170.5,82.5 C 177.214,82.3626 183.88,82.8626 190.5,84C 205.94,89.3845 214.273,100.218 215.5,116.5C 189.158,116.833 162.825,116.5 136.5,115.5C 139.05,106.319 143.383,98.1528 149.5,91C 156.012,86.6696 163.012,83.8362 170.5,82.5 Z"/></g>
<g><path style="opacity:0.901" fill="#fbfbfb" d="M 569.5,178.5 C 563.167,178.5 556.833,178.5 550.5,178.5C 521.367,172.847 506.367,155.013 505.5,125C 505.905,93.6013 521.572,75.6013 552.5,71C 573.39,69.4036 590.556,76.5702 604,92.5C 609.655,103.118 612.488,114.452 612.5,126.5C 581.826,126.167 551.159,126.5 520.5,127.5C 518.734,145.131 526.067,157.298 542.5,164C 547.694,166.009 553.027,167.509 558.5,168.5C 565.249,166.979 571.915,165.146 578.5,163C 583,159.833 587.5,156.667 592,153.5C 595,154.833 598,156.167 601,157.5C 600.036,161.565 597.87,165.065 594.5,168C 586.533,172.658 578.2,176.158 569.5,178.5 Z M 551.5,82.5 C 576.83,80.1913 592.83,91.1913 599.5,115.5C 572.84,116.667 546.173,116.833 519.5,116C 521.301,103.406 527.635,93.7391 538.5,87C 542.614,84.4607 546.947,82.9607 551.5,82.5 Z"/></g>
<g><path style="opacity:0.9" fill="#fbfbfb" d="M 695.5,178.5 C 690.167,178.5 684.833,178.5 679.5,178.5C 650.232,172.749 634.898,154.749 633.5,124.5C 638.999,82.5207 662.666,65.354 704.5,73C 719.613,77.1165 729.947,86.4498 735.5,101C 735.241,102.261 734.574,103.261 733.5,104C 730.65,105.171 727.816,106.338 725,107.5C 721.99,97.4985 715.823,90.3318 706.5,86C 689.712,79.9283 674.046,81.9283 659.5,92C 644.921,110.305 643.088,129.805 654,150.5C 661.321,161.083 671.488,166.917 684.5,168C 702.706,167.902 716.372,160.069 725.5,144.5C 728.136,145.971 730.636,147.637 733,149.5C 733.325,151.553 732.991,153.553 732,155.5C 723.536,169.143 711.37,176.81 695.5,178.5 Z"/></g>
<g><path style="opacity:0.91" fill="#fbfbfb" d="M 248.5,73.5 C 253.099,73.2 257.599,73.5333 262,74.5C 271.47,101.243 281.136,127.91 291,154.5C 300.861,128.084 310.028,101.417 318.5,74.5C 323.167,73.1667 327.833,73.1667 332.5,74.5C 341.051,101.157 350.385,127.49 360.5,153.5C 361.799,152.91 362.632,151.91 363,150.5C 371.272,125.018 379.938,99.6842 389,74.5C 393.401,73.5333 397.901,73.2 402.5,73.5C 390.768,107.029 379.435,140.696 368.5,174.5C 363.238,174.805 358.072,174.471 353,173.5C 344.197,147.425 335.197,121.425 326,95.5C 315.547,121.358 306.38,147.691 298.5,174.5C 293.238,174.805 288.072,174.471 283,173.5C 272.183,139.881 260.683,106.548 248.5,73.5 Z"/></g>
</svg>
